<svg width="25" height="25" viewBox="0 0 25 25" fill="none" xmlns="http://www.w3.org/2000/svg">
<path d="M12 22C9.78333 22 7.89567 21.2333 6.337 19.7C4.77833 18.1667 3.99933 16.3 4 14.1C4 13.05 4.20433 12.046 4.613 11.088C5.02167 10.13 5.60067 9.284 6.35 8.55L12 3L17.65 8.55C18.4 9.28333 18.9793 10.1293 19.388 11.088C19.7967 12.0467 20.0007 13.0507 20 14.1C20 16.3 19.221 18.1667 17.663 19.7C16.105 21.2333 14.2173 22 12 22ZM6 14.1H18C18 13.3167 17.85 12.571 17.55 11.863C17.25 11.155 16.8167 10.534 16.25 10L12 5.8L7.75 10C7.18333 10.5333 6.75 11.1543 6.45 11.863C6.15 12.5717 6 13.3173 6 14.1Z" fill="#464648"/>
</svg>
