<svg width="25" height="25" viewBox="0 0 25 25" fill="none" xmlns="http://www.w3.org/2000/svg">
<path d="M16 13V5C16 4.20435 15.6839 3.44129 15.1213 2.87868C14.5587 2.31607 13.7956 2 13 2C12.2044 2 11.4413 2.31607 10.8787 2.87868C10.3161 3.44129 10 4.20435 10 5V13C9.16047 13.6296 8.54033 14.5075 8.22743 15.5092C7.91453 16.5108 7.92473 17.5856 8.25658 18.5811C8.58844 19.5767 9.22512 20.4426 10.0764 21.0562C10.9278 21.6698 11.9506 22 13 22C14.0494 22 15.0722 21.6698 15.9236 21.0562C16.7749 20.4426 17.4116 19.5767 17.7434 18.5811C18.0753 17.5856 18.0855 16.5108 17.7726 15.5092C17.4597 14.5075 16.8395 13.6296 16 13ZM13 4C13.2652 4 13.5196 4.10536 13.7071 4.29289C13.8946 4.48043 14 4.73478 14 5V8H12V5C12 4.73478 12.1054 4.48043 12.2929 4.29289C12.4804 4.10536 12.7348 4 13 4Z" fill="#464648"/>
</svg>
