<svg width="25" height="25" viewBox="0 0 25 25" fill="none" xmlns="http://www.w3.org/2000/svg">
<path d="M13.4375 5.9375C13.4375 6.45605 13.8564 6.875 14.375 6.875H15.3125C15.8311 6.875 16.25 7.29395 16.25 7.8125C16.25 8.33105 15.8311 8.75 15.3125 8.75H5.9375C5.41895 8.75 5 9.16895 5 9.6875C5 10.2061 5.41895 10.625 5.9375 10.625H15.3125C16.8652 10.625 18.125 9.36523 18.125 7.8125C18.125 6.25977 16.8652 5 15.3125 5H14.375C13.8564 5 13.4375 5.41895 13.4375 5.9375ZM15.3125 16.25C15.3125 16.7686 15.7314 17.1875 16.25 17.1875H17.1875C18.7402 17.1875 20 15.9277 20 14.375C20 12.8223 18.7402 11.5625 17.1875 11.5625H5.9375C5.41895 11.5625 5 11.9814 5 12.5C5 13.0186 5.41895 13.4375 5.9375 13.4375H17.1875C17.7061 13.4375 18.125 13.8564 18.125 14.375C18.125 14.8936 17.7061 15.3125 17.1875 15.3125H16.25C15.7314 15.3125 15.3125 15.7314 15.3125 16.25ZM8.75 20H9.6875C11.2402 20 12.5 18.7402 12.5 17.1875C12.5 15.6348 11.2402 14.375 9.6875 14.375H5.9375C5.41895 14.375 5 14.7939 5 15.3125C5 15.8311 5.41895 16.25 5.9375 16.25H9.6875C10.2061 16.25 10.625 16.6689 10.625 17.1875C10.625 17.7061 10.2061 18.125 9.6875 18.125H8.75C8.23145 18.125 7.8125 18.5439 7.8125 19.0625C7.8125 19.5811 8.23145 20 8.75 20Z" fill="#464648"/>
</svg>
